<svg xmlns="http://www.w3.org/2000/svg" viewBox="0 0 210 60"><path d="m59.813 0-.465.93a13.812 13.812 0 0 1-4.102 4.914c-.316.234-.64.46-.976.672a13.836 13.836 0 0 1-6.762 2.058H25.637c-1.496 0-2.934.258-4.274.73a12.883 12.883 0 0 0-7.816 7.837 12.876 12.876 0 0 0-.73 4.289c0 1.504.253 2.941.73 4.285.39 1.113.933 2.164 1.605 3.11a12.864 12.864 0 0 0 6.211 4.73c.297.101.594.195.895.277 1.078.297 2.207.45 3.375.45h8.543c2.36 0 4.273 1.921 4.273 4.288a4.277 4.277 0 0 1-4.273 4.285h-8.54a21.16 21.16 0 0 1-3.648-.312c-.21-.035-.418-.07-.625-.113a21.207 21.207 0 0 1-8.547-3.86 21.46 21.46 0 0 1-4.273-4.285 21.307 21.307 0 0 1-3.844-8.57 21.81 21.81 0 0 1 0-8.574 21.33 21.33 0 0 1 3.844-8.57 21.562 21.562 0 0 1 4.273-4.286A21.148 21.148 0 0 1 21.363.43 21.37 21.37 0 0 1 25.637 0Zm0 0" style="stroke: none; fill-rule: nonzero; fill: rgb(235, 23, 0); fill-opacity: 1;"></path><path d="M55.543 38.57c0 1.465-.148 2.899-.43 4.285a21.254 21.254 0 0 1-3.843 8.57 21.478 21.478 0 0 1-4.274 4.29 21.236 21.236 0 0 1-8.543 3.855 21.66 21.66 0 0 1-4.273.426H12.816V60H0l.465-.93a13.759 13.759 0 0 1 4.101-4.91c.317-.238.641-.465.977-.672a13.693 13.693 0 0 1 7.008-2.066h21.633c1.5 0 2.933-.258 4.273-.727a12.885 12.885 0 0 0 7.816-7.843 12.991 12.991 0 0 0 0-8.574 12.842 12.842 0 0 0-8.715-8.113 12.65 12.65 0 0 0-3.37-.454h-8.551a4.277 4.277 0 0 1-4.274-4.285 4.28 4.28 0 0 1 4.274-4.29h8.543c1.246 0 2.465.11 3.648.317.211.035.418.074.621.113 3.156.641 6.063 1.98 8.543 3.856a21.408 21.408 0 0 1 8.55 17.148ZM78.672 36.61c.785.449 1.875.867 3.27 1.253 1.41.375 2.796.563 4.167.563s2.368-.188 2.993-.563c.62-.386.933-1.004.933-1.855 0-.586-.18-1.094-.543-1.52-.36-.425-.894-.832-1.605-1.218-.711-.399-1.918-1.004-3.625-1.817-2.059-.976-3.684-2.164-4.88-3.562-1.195-1.403-1.796-3.164-1.796-5.29 0-1.687.418-3.117 1.254-4.292.847-1.176 2.031-2.059 3.55-2.645 1.532-.586 3.317-.883 5.348-.883 1.89 0 3.532.176 4.914.528 1.383.336 2.418.707 3.102 1.105l-1.102 5.363c-.609-.476-1.52-.894-2.726-1.257a11.9 11.9 0 0 0-3.57-.563c-1.31 0-2.297.215-2.958.637-.644.426-.968 1.015-.968 1.765 0 .563.16 1.063.484 1.5.336.438.848.86 1.531 1.274.688.398 1.653.887 2.899 1.46 1.781.802 3.226 1.595 4.336 2.384 1.12.789 1.984 1.707 2.582 2.757.597 1.036.894 2.282.894 3.73 0 1.712-.406 3.208-1.215 4.481-.796 1.262-1.972 2.242-3.53 2.946-1.56.687-3.434 1.03-5.626 1.03-1.273 0-2.531-.093-3.777-.28a24.295 24.295 0 0 1-3.235-.696c-.921-.273-1.582-.539-1.98-.789Zm48.039 7.011h-7.98c-.114-.176-.325-.562-.637-1.164l-.578-1.086c-1.782-3.363-3.547-6.344-5.29-8.945l-2.597 3.094v8.101h-7.086V15.082h7.086v12.02l8.879-12.02h7.719l-9.329 12.3c.809 1.138 1.832 2.731 3.067 4.782a717.38 717.38 0 0 1 4.523 7.648l1.008 1.727Zm11.629-28.539v28.54h-7.176v-28.54Zm10.418 0c.832 0 2.11-.05 3.828-.148 1.797-.102 3.184-.153 4.172-.153 3.586 0 6.308.79 8.168 2.364 1.867 1.562 2.8 4.132 2.8 7.707 0 2.25-.449 4.164-1.343 5.738-.899 1.574-2.219 2.77-3.965 3.582-1.742.812-3.875 1.219-6.39 1.219-1.133 0-2.102-.016-2.9-.04v8.27h-7.14V15.082Zm7.27 15.188c1.445 0 2.59-.438 3.437-1.313.86-.875 1.293-2.254 1.293-4.145 0-1.562-.395-2.792-1.18-3.69-.773-.903-1.93-1.352-3.476-1.352-1.172 0-2.16.07-2.973.207V30.12c1.047.098 2.012.149 2.898.149Zm24.171-15.188v23.156h9.383v5.383h-16.617V15.082Zm22.098 0v28.54h-7.18v-28.54Zm0 0" style="stroke: none; fill-rule: nonzero; fill: rgb(235, 23, 0); fill-opacity: 1;"></path></svg>